<svg width="40" height="40" viewBox="0 0 40 40" fill="none" xmlns="http://www.w3.org/2000/svg">
<circle cx="20" cy="20" r="20" fill="white"/>
<mask id="path-2-outside-1" maskUnits="userSpaceOnUse" x="-1" y="-2" width="22" height="14" fill="black">
<rect fill="white" x="-1" y="-2" width="22" height="14"/>
<path d="M19.7954 0.204603C19.5197 -0.0682015 19.0718 -0.0682015 18.7961 0.204603L10.0097 8.9173L1.20598 0.204603C0.93033 -0.0682015 0.482394 -0.0682015 0.20674 0.204603C-0.0689134 0.477408 -0.0689134 0.920716 0.20674 1.19352L9.49282 10.3836C9.63064 10.52 9.80293 10.5882 9.99244 10.5882C10.1647 10.5882 10.3542 10.52 10.4921 10.3836L19.7781 1.19352C20.071 0.920716 20.071 0.477408 19.7954 0.204603Z"/>
</mask>
<path d="M19.7954 0.204603C19.5197 -0.0682015 19.0718 -0.0682015 18.7961 0.204603L10.0097 8.9173L1.20598 0.204603C0.93033 -0.0682015 0.482394 -0.0682015 0.20674 0.204603C-0.0689134 0.477408 -0.0689134 0.920716 0.20674 1.19352L9.49282 10.3836C9.63064 10.52 9.80293 10.5882 9.99244 10.5882C10.1647 10.5882 10.3542 10.52 10.4921 10.3836L19.7781 1.19352C20.071 0.920716 20.071 0.477408 19.7954 0.204603Z" transform="translate(25 30) scale(-1 1) rotate(-90)" fill="#53DEAA"/>
<path d="M19.7954 0.204603C19.5197 -0.0682015 19.0718 -0.0682015 18.7961 0.204603L10.0097 8.9173L1.20598 0.204603C0.93033 -0.0682015 0.482394 -0.0682015 0.20674 0.204603C-0.0689134 0.477408 -0.0689134 0.920716 0.20674 1.19352L9.49282 10.3836C9.63064 10.52 9.80293 10.5882 9.99244 10.5882C10.1647 10.5882 10.3542 10.52 10.4921 10.3836L19.7781 1.19352C20.071 0.920716 20.071 0.477408 19.7954 0.204603Z" transform="translate(25 30) scale(-1 1) rotate(-90)" stroke="#53DEAA" stroke-width="2" mask="url(#path-2-outside-1)"/>
</svg>
