<svg width="38" height="38" viewBox="0 0 38 38" fill="none" xmlns="http://www.w3.org/2000/svg">
<path fill-rule="evenodd" clip-rule="evenodd" d="M0 19C0 8.50659 8.50659 0 19 0C29.4934 0 38 8.50659 38 19C38 29.4934 29.4934 38 19 38C8.50659 38 0 29.4934 0 19Z" transform="translate(0 0.000244141)" fill="#fff"/>
<path d="M18 0H2C0.9 0 0 0.9 0 2V18C0 19.1 0.9 20 2 20H18C19.1 20 20 19.1 20 18V2C20 0.9 19.1 0 18 0ZM10 6C12.2 6 14 7.8 14 10C14 12.2 12.2 14 10 14C7.8 14 6 12.2 6 10C6 7.8 7.8 6 10 6ZM2.5 18C2.2 18 2 17.8 2 17.5V9H4.1C4 9.3 4 9.7 4 10C4 13.3 6.7 16 10 16C13.3 16 16 13.3 16 10C16 9.7 16 9.3 15.9 9H18V17.5C18 17.8 17.8 18 17.5 18H2.5ZM18 4.5C18 4.8 17.8 5 17.5 5H15.5C15.2 5 15 4.8 15 4.5V2.5C15 2.2 15.2 2 15.5 2H17.5C17.8 2 18 2.2 18 2.5V4.5Z" transform="translate(9 9.00024)" fill="#77D5B2"/>
</svg>
