<svg width="20" height="27" viewBox="0 0 20 27" fill="none" xmlns="http://www.w3.org/2000/svg">
<path fill-rule="evenodd" clip-rule="evenodd" d="M19.4443 10.125H17.7778V7.875C17.7778 3.53271 14.2888 0 10 0C5.9895 0 2.67847 3.08911 2.26562 7.04053C3.51172 7.04004 6 7.05371 6 7.05371C6 5.68457 7.79443 4 10 4C12.2056 4 14 5.79443 14 8V10H6C6 10 3.04395 10.0654 2.22217 10.0344V10.125H0.555664C0.248535 10.125 0 10.3767 0 10.6875V24.75C0 25.991 0.996582 27 2.22217 27H17.7778C19.0034 27 20 25.991 20 24.75V10.6875C20 10.3767 19.7515 10.125 19.4443 10.125ZM2.22217 9.21948C2.13672 9.66431 2.03687 10 2.03687 10C1.96875 10.0168 2.04688 10.0278 2.22217 10.0344V9.21948ZM2.22217 9.21948C2.33301 8.64331 2.41968 7.88428 2.23413 7.43457C2.22607 7.58032 2.22217 7.72729 2.22217 7.875V9.21948ZM2.23413 7.43457C2.24146 7.30225 2.25195 7.1709 2.26562 7.04053C1.6814 7.04053 1.37012 7.04419 1.71704 7.05371C1.979 7.06079 2.14087 7.20874 2.23413 7.43457ZM11.4971 22.3655C11.5127 22.5269 11.4673 22.6885 11.3726 22.8098C11.2778 22.9309 11.1421 23 11 23H9C8.85791 23 8.72217 22.9309 8.62744 22.8098C8.53271 22.6887 8.4873 22.5269 8.50293 22.3655L8.81836 19.124C8.30615 18.6982 8 18.0247 8 17.2856C8 16.0251 8.89697 15 10 15C11.103 15 12 16.0251 12 17.2856C12 18.0247 11.6938 18.6982 11.1816 19.124L11.4971 22.3655Z" transform="translate(20) scale(-1 1)" fill="#53DEAA"/>
</svg>
