<svg width="24" height="33" viewBox="0 0 24 33" fill="none" xmlns="http://www.w3.org/2000/svg">
<path d="M23.0305 13.233H21.3723V9.20586C21.3723 4.12975 17.1679 0 12.0002 0C6.83232 0 2.62781 4.12975 2.62781 9.20586V13.233H0.969599C0.434027 13.233 1.52728e-07 13.6593 1.52728e-07 14.1853V32.0476C1.52728e-07 32.5737 0.434027 33 0.969599 33H23.0306C23.566 33 24 32.5737 24 32.0476V14.1853C23.9999 13.6593 23.5659 13.233 23.0305 13.233ZM13.5117 24.1042V27.9069C13.5117 28.239 13.2376 28.5084 12.8994 28.5084H11.1005C10.7624 28.5084 10.4882 28.2391 10.4882 27.9069V24.1042C9.81925 23.6384 9.3824 22.8725 9.3824 22.0058C9.3824 20.586 10.5543 19.4348 12 19.4348C13.4455 19.4348 14.6174 20.586 14.6174 22.0058C14.6174 22.8725 14.1806 23.6384 13.5117 24.1042ZM16.8976 13.233H7.10248V9.20586C7.10248 6.55324 9.29958 4.39528 12.0002 4.39528C14.7007 4.39528 16.8976 6.55324 16.8976 9.20586V13.233Z" fill="white"/>
</svg>
