<svg width="18" height="18" viewBox="0 0 18 18" fill="none" xmlns="http://www.w3.org/2000/svg">
<path d="M10.5653 13.3527C9.50165 12.7923 8.3112 11.9495 7.12074 10.7607C5.92947 9.56864 5.08593 8.37654 4.52629 7.31127L5.44838 4.83545L2.34011 0L1.31574 1.026L1.31656 1.02845C1.31002 1.03582 1.30184 1.03991 1.29365 1.04891C-1.29016 3.63191 0.101563 8.92064 4.5312 13.3503C8.96084 17.7791 14.2487 19.17 16.8334 16.5878C16.8407 16.5796 16.8465 16.5715 16.853 16.5641L17.8774 15.5381L13.0436 12.4298L10.5653 13.3527Z" fill="#A7EAD1"/>
<path d="M7.87418 9.30682H9.306C9.306 4.176 5.13164 0 0 0V1.43182C4.34209 1.43182 7.87418 4.96555 7.87418 9.30682Z" transform="translate(8.5708)" fill="#A7EAD1"/>
<path d="M5.01136 6.44318H6.44318C6.44318 2.88982 3.55418 0 0 0V1.43182C2.763 1.43182 5.01136 3.68018 5.01136 6.44318Z" transform="translate(8.56982 2.86328)" fill="#A7EAD1"/>
<path d="M2.14691 3.57955H3.57873C3.57873 1.60527 1.97264 0 0 0V1.43182C1.18473 1.43182 2.14691 2.39564 2.14691 3.57955Z" transform="translate(8.5708 5.72705)" fill="#A7EAD1"/>
</svg>
