<svg width="20" height="21" viewBox="0 0 20 21" fill="none" xmlns="http://www.w3.org/2000/svg">
<path d="M11.8197 14.9381C10.6298 14.3111 9.29801 13.3683 7.96621 12.0384C6.63349 10.7047 5.68979 9.37111 5.06371 8.17936L6.09528 5.40958L2.61795 0L1.47197 1.14782L1.47288 1.15057C1.46556 1.1588 1.45641 1.16338 1.44725 1.17345C-1.44335 4.06313 0.113621 9.9798 5.0692 14.9354C10.0248 19.89 15.9405 21.4461 18.832 18.5573C18.8403 18.5482 18.8467 18.539 18.854 18.5308L20 17.383L14.5923 13.9056L11.8197 14.9381Z" fill="#C3CCD9"/>
<path opacity="0.6" d="M8.8091 10.4118H10.4109C10.4109 4.67183 5.74093 0 0 0V1.60182C4.85764 1.60182 8.8091 5.55512 8.8091 10.4118Z" transform="translate(9.58813)" fill="#C3CCD9"/>
<path opacity="0.6" d="M5.60637 7.20819H7.20819C7.20819 3.23293 3.97618 0 0 0V1.60182C3.09106 1.60182 5.60637 4.11714 5.60637 7.20819Z" transform="translate(9.58722 3.20361)" fill="#C3CCD9"/>
<path opacity="0.6" d="M2.40182 4.00455H4.00364C4.00364 1.79587 2.20685 0 0 0V1.60182C1.32539 1.60182 2.40182 2.68008 2.40182 4.00455Z" transform="translate(9.58813 6.40723)" fill="#C3CCD9"/>
</svg>
