<svg width="38" height="38" viewBox="0 0 38 38" fill="none" xmlns="http://www.w3.org/2000/svg">
<path fill-rule="evenodd" clip-rule="evenodd" d="M0 18.9514C0 8.48486 8.48535 0 18.9517 0C29.418 0 37.9028 8.48486 37.9028 18.9514C37.9028 29.4182 29.418 37.9031 18.9517 37.9031C8.48535 37.9031 0 29.4182 0 18.9514ZM26.1606 21.6914C25.9746 21.5151 25.7886 21.3389 25.6055 21.1599C24.9844 20.554 24.9448 20.2026 25.4453 19.5049C25.7358 19.0974 26.0381 18.6985 26.3408 18.2993C26.605 17.9509 26.8691 17.6025 27.1255 17.2483L27.1821 17.1702C27.6763 16.4861 28.1729 15.7991 28.4331 14.9805C28.6045 14.4395 28.4526 14.2007 27.8979 14.106C27.8022 14.0894 27.7036 14.0884 27.6069 14.0884L24.3159 14.0845C23.9106 14.0784 23.687 14.2551 23.5435 14.6143C23.3501 15.1001 23.1509 15.5847 22.9204 16.0532C22.3975 17.1157 21.8135 18.1421 20.9941 19.0117L20.959 19.0493C20.7871 19.2327 20.5947 19.4387 20.312 19.3455C19.9351 19.208 19.8232 18.5857 19.8296 18.3757L19.8267 14.5784C19.7534 14.0359 19.6328 13.7942 19.0942 13.6885L15.6768 13.689C15.2202 13.689 14.9922 13.8655 14.7485 14.1506C14.6079 14.3157 14.5654 14.4224 14.8545 14.4771C15.4214 14.5847 15.7412 14.9519 15.8257 15.5208C15.9619 16.4297 15.9521 17.3418 15.874 18.2544C15.8511 18.5208 15.8052 18.7866 15.6997 19.0352C15.5342 19.4265 15.2671 19.5059 14.917 19.2654C14.5996 19.0476 14.3765 18.7402 14.1582 18.4316C13.3384 17.2737 12.6846 16.0249 12.1514 14.7124C11.9971 14.3333 11.731 14.1035 11.3291 14.0972C10.3423 14.0815 9.35498 14.0791 8.36816 14.0981C7.77393 14.1091 7.59668 14.3975 7.83887 14.936C8.91357 17.3274 10.1104 19.6521 11.6724 21.77C12.4746 22.8567 13.3955 23.8162 14.585 24.4961C15.9331 25.2671 17.3843 25.499 18.9131 25.4275C19.6289 25.3938 19.8438 25.2075 19.8765 24.4944C19.8994 24.0066 19.9546 23.5208 20.1953 23.0825C20.4316 22.6519 20.79 22.5696 21.2021 22.8379C21.4087 22.9717 21.582 23.1418 21.7466 23.3223C21.8813 23.4695 22.0146 23.6182 22.1475 23.7671C22.4126 24.0632 22.6777 24.3594 22.9561 24.6426C23.4805 25.1768 24.1021 25.4917 24.8828 25.427L27.9077 25.4277C28.3945 25.3955 28.6475 24.7988 28.3672 24.2549C28.1709 23.8733 27.9131 23.5342 27.6392 23.2061C27.186 22.6621 26.6733 22.1768 26.1606 21.6914Z" transform="translate(0 -0.000244141)" fill="white"/>
</svg>
