<svg width="38" height="38" viewBox="0 0 38 38" fill="none" xmlns="http://www.w3.org/2000/svg">
<path d="M0 6.80984C2.18919 5.67512 4.35927 4.55083 6.54936 3.41551C4.35271 2.26975 2.18322 1.1389 0 0C0 2.2778 0 4.53234 0 6.80984Z" transform="translate(16.3799 15.9446)" fill="#0652C3"/>
<path fill-rule="evenodd" clip-rule="evenodd" d="M0 18.9514C0 8.48486 8.48535 0 18.9517 0C29.418 0 37.9028 8.48486 37.9028 18.9514C37.9028 29.4182 29.418 37.9031 18.9517 37.9031C8.48535 37.9031 0 29.4182 0 18.9514ZM26.751 26.449C27.8296 26.3289 28.7256 25.521 28.978 24.426C29.3374 22.8665 29.3384 21.1638 29.3384 19.5583V19.5198C29.3384 17.9253 29.3384 16.2378 28.9819 14.6907C28.73 13.5952 27.834 12.7876 26.7549 12.667C24.2012 12.3818 21.6152 12.3804 19.0415 12.3818C16.4668 12.3804 13.8813 12.3818 11.3267 12.667C10.248 12.7876 9.35254 13.5955 9.10059 14.6907C8.7417 16.25 8.7373 17.9526 8.7373 19.5583C8.7373 21.1638 8.7373 22.8662 9.09619 24.426C9.34814 25.521 10.2437 26.3289 11.3223 26.449C13.877 26.7346 16.4629 26.7361 19.0371 26.7346C21.6118 26.7361 24.1968 26.7346 26.751 26.449Z" transform="translate(0 -0.000244141)" fill="#0652C3"/>
<path d="M0 6.80984C2.18919 5.67512 4.35927 4.55083 6.54936 3.41551C4.35271 2.26975 2.18322 1.1389 0 0C0 2.2778 0 4.53234 0 6.80984Z" transform="translate(16.3799 15.9446)" fill="white"/>
<path fill-rule="evenodd" clip-rule="evenodd" d="M0 18.9514C0 8.48486 8.48535 0 18.9517 0C29.418 0 37.9028 8.48486 37.9028 18.9514C37.9028 29.4182 29.418 37.9031 18.9517 37.9031C8.48535 37.9031 0 29.4182 0 18.9514ZM26.751 26.449C27.8296 26.3289 28.7256 25.521 28.978 24.426C29.3374 22.8665 29.3384 21.1638 29.3384 19.5583V19.5198C29.3384 17.9253 29.3384 16.2378 28.9819 14.6907C28.73 13.5952 27.834 12.7876 26.7549 12.667C24.2012 12.3818 21.6152 12.3804 19.0415 12.3818C16.4668 12.3804 13.8813 12.3818 11.3267 12.667C10.248 12.7876 9.35254 13.5955 9.10059 14.6907C8.7417 16.25 8.7373 17.9526 8.7373 19.5583C8.7373 21.1638 8.7373 22.8662 9.09619 24.426C9.34814 25.521 10.2437 26.3289 11.3223 26.449C13.877 26.7346 16.4629 26.7361 19.0371 26.7346C21.6118 26.7361 24.1968 26.7346 26.751 26.449Z" transform="translate(0 -0.000244141)" fill="white"/>
</svg>
